# xmcd
# 
# Track frame offsets:
#     150
#     26228
#     56750
#     84291
#     114117
#     134121
# 
# Disc length: 2204
# 
# Revision: 0
# Processed by: cddbd v1.5.2PL0 Copyright (c) Steve Scherf et al.
# Submitted via: fre:ac v1.0.17
# 
DISCID=4c089a06
DTITLE=The Bible in Living Sound - cd 40 Old Testament
DYEAR=0
DGENRE=Gospel
TTITLE0=An Orphan Girl
TTITLE1=Esther Becomes Queen
TTITLE2=Haman Hates Mordecai
TTITLE3=Esther Helps in a Crisis
TTITLE4=The Queen's Invitation
TTITLE5=Haman's Defeat
EXTD=
EXTT0=
EXTT1=
EXTT2=
EXTT3=
EXTT4=
EXTT5=
PLAYORDER=
